<?xml version="1.0" encoding="utf-8"?>
<!-- Generator: Adobe Illustrator 16.0.3, SVG Export Plug-In . SVG Version: 6.00 Build 0)  -->
<!DOCTYPE svg PUBLIC "-//W3C//DTD SVG 1.1//EN" "http://www.w3.org/Graphics/SVG/1.1/DTD/svg11.dtd">
<svg version="1.1" id="Capa_1" xmlns="http://www.w3.org/2000/svg" xmlns:xlink="http://www.w3.org/1999/xlink" x="0px" y="0px"
	 width="640px" height="480px" viewBox="0 0 640 480" enable-background="new 0 0 640 480" xml:space="preserve">
<ellipse fill="#09CC2E" stroke="#000000" stroke-miterlimit="10" cx="320.531" cy="257.49" rx="100.336" ry="99.664"/>
<rect x="-167.631" y="138.349" fill="#FFFFFF" stroke="#000000" stroke-miterlimit="10" width="0" height="0"/>
<g>
	<g>
		<path fill="#016B42" d="M238.123,352.559c0.391-0.672,0.561-1.203,0.515-1.59c-0.046-0.388-0.26-0.74-0.639-1.059
			c-0.443-0.243-0.664-0.362-1.105-0.608c-0.072-0.069-0.069-0.172,0.01-0.302c0.07-0.115,0.139-0.184,0.209-0.207
			c0.071-0.024,0.197,0.005,0.376,0.086c1.897,0.861,2.852,1.278,4.771,2.088c0.071,0.03,0.115,0.081,0.132,0.151
			s0.004,0.143-0.037,0.216s-0.093,0.119-0.159,0.137s-0.259,0.015-0.58-0.014c-0.66-0.059-1.184,0.004-1.565,0.195
			c-0.382,0.192-0.824,0.663-1.325,1.414c-5.783,10.044-11.566,20.087-17.347,30.132c-2.067-0.897-3.095-1.358-5.141-2.306
			c3.515-11.151,7.307-22.043,11.479-32.965c-5.933,8.753-11.868,17.504-17.802,26.256c-0.488,0.719-0.711,1.286-0.67,1.695
			s0.295,0.807,0.761,1.191c0.562,0.327,0.843,0.491,1.407,0.814c0.081,0.096,0.079,0.209-0.005,0.338
			c-0.074,0.113-0.149,0.177-0.227,0.186s-0.227-0.043-0.445-0.15c-2.314-1.146-3.463-1.734-5.746-2.945
			c-0.086-0.046-0.141-0.105-0.164-0.176c-0.025-0.07-0.013-0.141,0.036-0.21s0.112-0.105,0.192-0.112
			c0.077-0.006,0.31,0.034,0.689,0.121c0.779,0.18,1.388,0.198,1.818,0.06c0.43-0.139,0.943-0.576,1.538-1.317
			c6.49-9.475,12.982-18.947,19.473-28.421c-0.589-0.304-0.882-0.459-1.469-0.769c-0.088-0.046-0.146-0.107-0.171-0.189
			c-0.026-0.081-0.01-0.164,0.049-0.248c0.049-0.069,0.12-0.114,0.215-0.131s0.187-0.002,0.274,0.044
			c2.701,1.426,4.065,2.108,6.819,3.422c-3.841,10.494-5.567,15.816-8.623,26.579C230.647,365.402,233.138,361.122,238.123,352.559z
			"/>
		<path fill="#016B42" d="M245.447,352.952c-0.647-0.258-0.969-0.387-1.614-0.65c-0.138-0.195-0.188-0.332-0.15-0.403
			c0.047-0.086,0.197-0.134,0.451-0.153c3.485,1.426,5.244,2.097,8.792,3.351c0.091,0.032,0.153,0.081,0.185,0.152
			c0.032,0.07,0.031,0.145-0.003,0.218c-0.048,0.103-0.111,0.169-0.191,0.2s-0.165,0.031-0.258-0.002
			c-0.623-0.221-0.934-0.332-1.555-0.558c-5.006,10.396-10.01,20.794-15.014,31.191c-0.306,0.635-0.281,1.221,0.079,1.758
			c0.362,0.538,0.994,0.968,1.894,1.281c1.636,0.569,3.192,0.595,4.641,0.081c1.447-0.513,2.559-1.714,3.355-3.587
			c4.315-10.144,6.474-15.218,10.789-25.36c0.49-1.151,0.682-1.924,0.582-2.313c-0.101-0.392-0.453-0.751-1.053-1.087
			c-0.308-0.173-0.496-0.321-0.561-0.439s-0.077-0.223-0.037-0.314c0.051-0.057,0.078-0.087,0.128-0.144
			c0.097,0.012,0.145,0.017,0.241,0.028c1.752,0.585,2.631,0.868,4.396,1.412c0.111,0.034,0.316,0.234,0.32,0.375
			c0.001,0.048-0.099,0.128-0.208,0.161s-0.276,0.033-0.492-0.003c-0.393-0.066-0.761,0.026-1.095,0.26
			c-0.547,0.383-1.084,1.132-1.557,2.255c-3.649,8.686-7.304,17.369-10.955,26.054c-0.75,1.785-1.996,2.931-3.757,3.404
			c-1.763,0.475-3.95,0.273-6.514-0.639c-3.23-1.148-5.286-2.591-6.133-4.215c-0.595-1.141-0.324-2.772,0.785-4.871
			C235.774,371.246,240.612,362.1,245.447,352.952z"/>
		<path fill="#016B42" d="M268.699,360.599c-0.24-0.063-0.361-0.094-0.601-0.157c-0.418-0.11-0.818-0.095-1.2,0.041
			c-0.573,0.204-1.283,0.808-2.14,1.804c-1.369,1.593-2.793,3.558-4.263,5.897s-2.354,3.837-2.612,4.504
			c-0.083,0.214-0.123,0.319-0.205,0.533c-0.048,0.124-0.127,0.21-0.237,0.256c-0.111,0.045-0.218,0.052-0.321,0.021
			c-0.124-0.036-0.205-0.099-0.243-0.176c-0.061-0.121-0.079-0.239-0.036-0.348c2.314-5.894,3.47-8.841,5.784-14.735
			c7.315,2.165,11.031,3.071,18.52,4.529c-1.568,6.066-2.353,9.099-3.921,15.165c-0.029,0.11-0.095,0.196-0.198,0.252
			c-0.104,0.055-0.219,0.07-0.346,0.045c-0.106-0.021-0.191-0.075-0.257-0.164s-0.084-0.188-0.055-0.3
			c0.098-0.372,0.147-0.56,0.245-0.932c0.239-0.907,0.381-2.655,0.467-5.243s0.008-4.803-0.242-6.633
			c-0.161-1.175-0.355-1.904-0.589-2.191c-0.235-0.287-0.485-0.465-0.754-0.524c-0.369-0.082-0.552-0.125-0.92-0.209
			c-3.487,11.5-6.979,22.999-10.464,34.5c1.103,0.252,1.654,0.376,2.76,0.615c0.229,0.163,0.331,0.29,0.305,0.382
			c-0.026,0.091-0.185,0.163-0.476,0.214c-5.264-1.14-7.881-1.781-13.075-3.206c-0.117-0.032-0.2-0.085-0.25-0.157
			s-0.06-0.15-0.027-0.24c0.033-0.091,0.094-0.152,0.185-0.186c0.089-0.033,0.189-0.035,0.307-0.003
			c1.217,0.334,1.828,0.495,3.049,0.813C260.824,383.377,264.763,371.988,268.699,360.599z"/>
		<path fill="#016B42" d="M284.325,363.989c-0.686-0.122-1.029-0.183-1.713-0.311c-0.19-0.136-0.269-0.261-0.241-0.372
			c0.024-0.096,0.152-0.171,0.388-0.229c3.635,0.677,5.462,0.974,9.125,1.484c2.267,0.316,4.094,1.357,5.557,3.161
			c1.463,1.803,2.055,4.093,1.693,6.892c-0.208,1.612-0.734,3.014-1.6,4.193c-0.866,1.18-2.061,2.104-3.582,2.752
			c-0.913,0.39-4.144,0.922-4.144,0.922c-0.007,0.056,3.221,1.285,3.941,1.779c1.218,0.835,2.097,1.758,2.617,2.783
			s0.689,2.299,0.49,3.827c-0.465,3.569-0.698,5.355-1.163,8.925c-0.053,0.406,0.005,0.7,0.175,0.881s0.414,0.288,0.725,0.317
			c0.479,0.045,0.937-0.124,1.367-0.494c0.693-0.597,1.246-1.75,1.578-3.416c0.058-0.288,0.142-0.48,0.258-0.569
			s0.232-0.127,0.349-0.117c0.14,0.012,0.25,0.079,0.332,0.196c0.098,0.139,0.138,0.392,0.1,0.75
			c-0.191,1.81-0.973,3.158-2.369,4.031c-1.395,0.873-3.086,1.213-5.039,1.005c-1.735-0.186-3.001-0.642-3.79-1.35
			c-0.788-0.707-1.083-1.616-0.896-2.718c0.874-5.14,1.311-7.708,2.184-12.847c0.187-1.102-0.058-1.898-0.724-2.357
			c-0.39-0.269-1.389-0.504-2.979-0.737c-1.386,7.116-2.08,10.673-3.466,17.79c0.703,0.104,1.055,0.156,1.759,0.254
			c0.193,0.027,0.337,0.079,0.434,0.155c0.096,0.077,0.138,0.153,0.124,0.231s-0.081,0.142-0.2,0.189
			c-0.119,0.047-0.276,0.057-0.47,0.029c-4.541-0.633-6.805-1-11.312-1.84c-0.143-0.026-0.257-0.078-0.339-0.15
			s-0.11-0.151-0.087-0.243c0.023-0.093,0.088-0.158,0.197-0.194s0.234-0.04,0.377-0.014c0.841,0.156,1.262,0.232,2.105,0.382
			C278.833,387.305,281.581,375.647,284.325,363.989z M290.35,364.989c-1.305,6.701-1.958,10.051-3.263,16.751
			c0.629,0.093,0.945,0.137,1.575,0.225c0.751,0.104,1.398-0.003,1.937-0.33c0.538-0.327,0.868-0.865,0.995-1.611
			c0.857-5.042,1.285-7.563,2.142-12.604c0.124-0.729,0.054-1.248-0.208-1.563s-0.848-0.538-1.758-0.665
			C291.202,365.111,290.917,365.072,290.35,364.989z"/>
		<path fill="#016B42" d="M306.876,366.709c-0.707-0.046-1.059-0.071-1.766-0.123c-0.099-0.007-0.176-0.041-0.23-0.104
			c-0.053-0.062-0.074-0.134-0.066-0.215c0.01-0.098,0.046-0.172,0.111-0.225c0.065-0.053,0.145-0.075,0.243-0.068
			c3.812,0.28,5.722,0.376,9.543,0.479c0.098,0.003,0.18,0.035,0.247,0.094s0.099,0.127,0.096,0.209
			c-0.003,0.098-0.042,0.177-0.113,0.232c-0.071,0.057-0.152,0.081-0.25,0.078c-0.708-0.02-1.062-0.029-1.77-0.055
			c-0.561,11.889-1.122,23.777-1.683,35.666c0.87,0.031,1.304,0.045,2.174,0.068c0.237,0.117,0.358,0.222,0.354,0.316
			c-0.004,0.11-0.131,0.209-0.376,0.297c-4.848-0.131-7.269-0.252-12.104-0.613c-0.255-0.13-0.376-0.242-0.367-0.336
			c0.01-0.095,0.152-0.186,0.428-0.275c0.984,0.073,1.477,0.108,2.462,0.172C304.83,390.44,305.853,378.575,306.876,366.709z"/>
		<path fill="#016B42" d="M317.949,402.828c0.145-11.897,0.29-23.796,0.431-35.693c-0.78-0.007-1.168-0.013-1.948-0.027
			c-0.213-0.118-0.321-0.23-0.318-0.328c0.002-0.082,0.113-0.176,0.332-0.287c3.469,0.064,5.206,0.059,8.674-0.023
			c2.665-0.063,4.875,0.605,6.706,2.046c1.83,1.438,2.908,3.529,3.158,6.304c0.153,1.696-0.021,3.184-0.542,4.455
			c-0.521,1.272-1.418,2.365-2.703,3.266c-0.808,0.565-3.759,1.66-3.759,1.66c0.002,0.066,3.177,0.861,4.058,1.326
			c1.415,0.748,2.542,1.706,3.359,2.844c0.816,1.138,1.314,2.567,1.473,4.297c0.205,2.234-0.169,4.262-1.123,6.058
			c-0.661,1.245-1.835,2.34-3.543,3.231s-3.815,1.381-6.29,1.436c-4.149,0.092-6.225,0.096-10.375,0.02
			c-0.264-0.115-0.393-0.223-0.391-0.316c0.002-0.095,0.137-0.193,0.405-0.299C316.512,402.813,316.991,402.819,317.949,402.828z
			 M324.429,367.122c0.181,6.745,0.273,10.119,0.454,16.864c0.699-0.014,1.049-0.021,1.748-0.041
			c0.791-0.022,1.372-0.19,1.742-0.498c0.369-0.308,0.537-0.805,0.503-1.49c-0.259-5.113-0.389-7.67-0.647-12.784
			c-0.042-0.833-0.252-1.393-0.623-1.682c-0.372-0.289-1.072-0.419-2.104-0.393C325.073,367.109,324.857,367.113,324.429,367.122z
			 M324.898,384.626c0.194,7.255,0.296,10.882,0.49,18.138c0.469-0.01,0.701-0.016,1.17-0.027c1.023-0.025,1.832-0.248,2.422-0.662
			c0.59-0.413,0.863-0.955,0.829-1.626c-0.288-5.7-0.434-8.55-0.722-14.25c-0.03-0.604-0.211-1.033-0.545-1.284
			c-0.333-0.25-0.842-0.361-1.526-0.341C326.169,384.599,325.746,384.609,324.898,384.626z"/>
		<path fill="#016B42" d="M338.165,366.365c-0.694,0.061-1.041,0.086-1.735,0.141c-0.227-0.081-0.345-0.177-0.356-0.291
			c-0.01-0.098,0.086-0.203,0.29-0.318c3.688-0.29,5.528-0.476,9.198-0.932c2.271-0.282,4.374,0.242,6.392,1.587
			c2.017,1.344,3.368,3.38,3.98,6.146c0.353,1.593,0.33,3.067-0.095,4.417c-0.425,1.351-1.25,2.54-2.482,3.552
			c-0.739,0.607-3.645,1.947-3.645,1.947c0.009,0.057,3.518,0.397,4.375,0.684c1.45,0.483,2.607,1.138,3.456,1.982
			s1.447,2.018,1.78,3.528c0.777,3.528,1.167,5.293,1.944,8.821c0.089,0.401,0.246,0.669,0.472,0.798s0.491,0.166,0.8,0.113
			c0.475-0.081,0.859-0.362,1.145-0.826c0.46-0.748,0.591-1.992,0.338-3.667c-0.044-0.29-0.027-0.496,0.054-0.611
			s0.181-0.182,0.296-0.203c0.139-0.025,0.265,0.011,0.384,0.102c0.142,0.107,0.267,0.337,0.353,0.688
			c0.437,1.777,0.149,3.269-0.889,4.463c-1.037,1.193-2.541,1.956-4.48,2.261c-1.724,0.271-3.09,0.161-4.085-0.313
			c-0.995-0.473-1.588-1.265-1.786-2.364c-0.925-5.133-1.388-7.696-2.313-12.829c-0.198-1.1-0.701-1.797-1.494-2.064
			c-0.464-0.156-1.503-0.123-3.1,0.063c1.112,7.153,1.667,10.729,2.779,17.882c0.706-0.083,1.057-0.125,1.762-0.213
			c0.193-0.024,0.352-0.012,0.47,0.036c0.118,0.049,0.185,0.112,0.197,0.19s-0.029,0.156-0.127,0.232
			c-0.098,0.075-0.243,0.124-0.437,0.148c-4.551,0.564-6.831,0.797-11.403,1.156c-0.145,0.012-0.271-0.008-0.374-0.056
			s-0.158-0.12-0.168-0.214c-0.01-0.095,0.031-0.17,0.122-0.232s0.209-0.098,0.354-0.109c0.854-0.067,1.279-0.102,2.132-0.176
			C340.9,390.045,339.538,378.204,338.165,366.365z M344.245,365.767c1.047,6.735,1.571,10.104,2.618,16.839
			c0.632-0.074,0.948-0.113,1.58-0.191c0.753-0.094,1.331-0.363,1.733-0.814c0.401-0.451,0.534-1.05,0.4-1.795
			c-0.907-5.035-1.36-7.554-2.268-12.589c-0.131-0.728-0.378-1.209-0.736-1.442s-0.994-0.292-1.904-0.179
			C345.1,365.665,344.814,365.7,344.245,365.767z"/>
		<path fill="#016B42" d="M360.765,363.121c-0.75,0.151-1.127,0.225-1.879,0.368c-0.225-0.074-0.344-0.15-0.364-0.23
			c-0.028-0.111,0.037-0.233,0.206-0.367c6.57-1.257,9.834-2.021,16.275-3.822c1.931,5.207,2.898,7.812,4.829,13.019
			c-0.062,0.188-0.152,0.301-0.271,0.334s-0.208,0.027-0.278-0.014c-0.068-0.041-0.188-0.254-0.35-0.637
			c-1.079-2.541-2.494-4.806-4.173-6.801s-2.999-3.197-4.006-3.589c-0.528-0.206-1.287-0.187-2.286,0.056
			c-0.714,0.173-1.074,0.26-1.789,0.426c2.059,6.669,3.092,10.003,5.15,16.671c1.184-0.377,2.021-1.092,2.495-2.127
			c0.636-1.391,0.533-3.285-0.268-5.657c-0.248-0.735-0.37-1.101-0.618-1.836c-0.026-0.078-0.017-0.154,0.035-0.227
			s0.128-0.123,0.228-0.148s0.191-0.018,0.271,0.021s0.13,0.098,0.156,0.176c2.396,6.994,3.594,10.491,5.989,17.484
			c0.027,0.079,0.016,0.154-0.032,0.227s-0.127,0.122-0.238,0.15s-0.215,0.027-0.312-0.008s-0.161-0.092-0.188-0.171
			c-0.229-0.679-0.342-1.018-0.571-1.696c-0.785-2.325-2.005-4.037-3.605-5.103c-0.933-0.62-1.78-0.843-2.527-0.667
			c-0.191,0.045-0.329,0.129-0.406,0.247c-0.092,0.142-0.104,0.333-0.031,0.569c2.041,6.611,3.063,9.915,5.104,16.527
			c0.452-0.105,0.679-0.157,1.13-0.265c0.964-0.229,1.841-0.701,2.616-1.415s1.365-1.768,1.758-3.161
			c0.393-1.393,0.546-2.847,0.475-4.352c-0.115-2.437-0.42-4.288-0.882-5.552c-0.226-0.618-0.339-0.927-0.564-1.545
			c0.088-0.213,0.194-0.334,0.323-0.37s0.239-0.043,0.333-0.018c0.093,0.025,0.152,0.077,0.182,0.155
			c2.143,5.777,3.215,8.666,5.357,14.443c-7.961,2.226-11.991,3.169-20.111,4.725c-0.168,0.032-0.311,0.029-0.421-0.014
			c-0.11-0.044-0.173-0.105-0.192-0.183c-0.023-0.093,0.004-0.174,0.085-0.246s0.205-0.125,0.373-0.157
			c0.912-0.175,1.367-0.264,2.277-0.447C366.956,386.304,363.862,374.712,360.765,363.121z"/>
		<path fill="#016B42" d="M383.631,356.994c1.235-0.405,1.855-0.613,3.084-1.039c6.793,10.569,13.921,20.924,21.369,31.042
			c0.611-0.23,0.917-0.347,1.526-0.581c0.3,0.006,0.472,0.052,0.517,0.139c0.044,0.086-0.032,0.226-0.229,0.422
			c-4.09,1.575-6.154,2.318-10.311,3.705c-0.115,0.038-0.219,0.04-0.311,0.012s-0.155-0.086-0.194-0.174
			c-0.039-0.089-0.036-0.169,0.01-0.243s0.126-0.131,0.24-0.169c0.661-0.221,0.991-0.332,1.65-0.558
			c-1.537-2.482-2.299-3.726-3.811-6.219c-2.434,0.821-3.654,1.216-6.109,1.97c0.329,1.575,0.489,2.363,0.807,3.941
			c0.059,0.208,0.132,0.418,0.219,0.635c0.273,0.68,0.672,1.138,1.195,1.368c0.522,0.231,1.138,0.278,1.842,0.145
			c0.242-0.023,0.361-0.034,0.604-0.059c0.118,0.032,0.197,0.093,0.236,0.186c0.039,0.092,0.033,0.179-0.025,0.258
			s-0.148,0.138-0.264,0.174c-2.374,0.748-3.566,1.107-5.959,1.795c-0.116,0.033-0.224,0.034-0.326,0.003s-0.173-0.093-0.208-0.186
			c-0.035-0.094-0.029-0.182,0.017-0.264c0.153-0.085,0.231-0.129,0.385-0.215c0.649-0.256,1.103-0.615,1.328-1.063
			c0.348-0.69,0.379-1.721,0.107-3.042C388.771,378.243,386.32,367.627,383.631,356.994z M386.594,365.812
			c1.875,7.506,2.741,11.277,4.336,18.852c2.34-0.72,3.507-1.095,5.827-1.876C392.589,376.037,390.557,372.641,386.594,365.812z"/>
		<path fill="#016B42" d="M396.293,352.459c-0.656,0.267-0.984,0.397-1.643,0.658c-0.109,0.043-0.213,0.054-0.303,0.028
			s-0.159-0.081-0.204-0.167c-0.045-0.087-0.046-0.167-0.01-0.242c0.037-0.076,0.112-0.135,0.222-0.178
			c3.588-1.421,5.365-2.176,8.88-3.777c0.238,0.018,0.381,0.063,0.432,0.147c0.051,0.083,0.014,0.218-0.106,0.396
			c-0.678,0.309-1.016,0.462-1.696,0.764c3.758,6.384,5.636,9.575,9.394,15.958c-0.1-6.077-0.266-9.095-0.835-15.067
			c-0.078-0.9-0.313-1.641-0.694-2.226c-0.315-0.483-0.686-0.811-1.103-0.982s-0.868-0.205-1.358-0.101
			c-0.422,0.17-0.632,0.256-1.055,0.423c-0.16,0.003-0.276-0.057-0.349-0.172c-0.054-0.086-0.066-0.17-0.036-0.25
			s0.09-0.139,0.18-0.182c2.617-1.244,3.914-1.894,6.484-3.239c0.087-0.046,0.181-0.06,0.276-0.043
			c0.095,0.017,0.172,0.07,0.23,0.154c0.078,0.112,0.078,0.213,0.002,0.311c-0.474,0.306-0.712,0.458-1.188,0.761
			c-0.508,0.472-0.808,1.089-0.901,1.854s-0.015,2.18,0.195,4.253c0.253,2.677,0.355,4.024,0.515,6.724
			c7.078,6.086,14.415,11.871,21.984,17.335c0.58-0.302,0.87-0.454,1.448-0.761c0.107-0.057,0.212-0.082,0.321-0.075
			c0.108,0.007,0.191,0.053,0.249,0.134c0.057,0.08,0.065,0.165,0.022,0.253c-0.042,0.087-0.12,0.158-0.228,0.215
			c-4.115,2.18-6.197,3.218-10.41,5.186c-0.26-0.004-0.412-0.049-0.463-0.132c-0.06-0.098-0.017-0.235,0.134-0.412
			c0.867-0.405,1.297-0.609,2.16-1.023c-6.305-4.802-9.354-7.276-15.24-12.355c3.59,6.099,5.386,9.148,8.977,15.248
			c0.825-0.366,1.236-0.553,2.059-0.927c0.131-0.06,0.247-0.081,0.354-0.067c0.105,0.015,0.185,0.063,0.235,0.147
			c0.051,0.083,0.052,0.164,0.004,0.248s-0.133,0.157-0.266,0.218c-4.339,1.977-6.536,2.91-10.965,4.664
			c-0.063,0.004-0.091,0.004-0.153,0.008c-0.098-0.031-0.176-0.095-0.229-0.195s-0.022-0.226,0.09-0.373
			c0.81-0.32,1.215-0.483,2.021-0.812C407.914,374.011,402.104,363.234,396.293,352.459z"/>
	</g>
</g>
</svg>
